<svg xmlns="http://www.w3.org/2000/svg" width="512" height="512" viewBox="0 0 128 128">
  <path d="M122.25 14.753H5.75A5.757 5.757 0 0 0 0 20.5v87a5.757 5.757 0 0 0 5.75 5.75h116.5a5.757 5.757 0 0 0 5.75-5.75v-87a5.757 5.757 0 0 0-5.75-5.747zM3.5 20.5a2.253 2.253 0 0 1 2.25-2.25h116.5a2.253 2.253 0 0 1 2.25 2.25V34H3.5zm121 86.994a2.253 2.253 0 0 1-2.25 2.25H5.75A2.253 2.253 0 0 1 3.5 107.5V37.506h121z"/>
  <path d="M116.242 24.379h-5.75a1.75 1.75 0 0 0 0 3.5h5.75a1.75 1.75 0 0 0 0-3.5zM100.867 24.379h-5.75a1.75 1.75 0 0 0 0 3.5h5.75a1.75 1.75 0 0 0 0-3.5zM85.492 24.379h-5.75a1.75 1.75 0 0 0 0 3.5h5.75a1.75 1.75 0 0 0 0-3.5zM59.248 82.4h57a1.75 1.75 0 0 0 1.75-1.75v-34.9a1.75 1.75 0 0 0-1.75-1.75h-57a1.75 1.75 0 0 0-1.75 1.75v34.9a1.75 1.75 0 0 0 1.75 1.75zm55.252-3.5H61v-5.323L76.47 63l38.03 15.092zm0-31.4v26.826L76.9 59.4a1.756 1.756 0 0 0-1.633.183L61 69.337V47.505z"/>
  <path d="M99.219 64.341a6.469 6.469 0 1 0-6.469-6.469 6.475 6.475 0 0 0 6.469 6.469zm0-9.438a2.969 2.969 0 1 1-2.969 2.969 2.972 2.972 0 0 1 2.969-2.972zM11.75 47.505h37.491a1.75 1.75 0 0 0 0-3.5H11.75a1.75 1.75 0 0 0 0 3.5zM11.75 66.086h37.491a1.75 1.75 0 0 0 0-3.5H11.75a1.75 1.75 0 0 0 0 3.5zM11.75 84.666h37.491a1.75 1.75 0 0 0 0-3.5H11.75a1.75 1.75 0 0 0 0 3.5zM15.753 53.3a1.75 1.75 0 0 0 0 3.5h29.484a1.75 1.75 0 1 0 0-3.5zM15.753 71.876a1.75 1.75 0 0 0 0 3.5h29.484a1.75 1.75 0 0 0 0-3.5zM116.25 90.457H15.753a1.75 1.75 0 0 0 0 3.5h100.5a1.75 1.75 0 0 0 0-3.5zM11.75 103.247h104.5a1.75 1.75 0 0 0 0-3.5H11.75a1.75 1.75 0 0 0 0 3.5z"/>
</svg>
