<svg xmlns="http://www.w3.org/2000/svg" width="512" height="512" viewBox="0 0 511.942 511.942">
  <path d="M505.735 125.549c-.334-3.492-3.044-6.286-6.524-6.727-25.991-3.287-52.257-5.451-78.188-6.472-.896-11.712-1.899-23.411-3.015-35.094-.334-3.492-3.043-6.286-6.523-6.727-103.191-13.067-207.834-13.067-311.025 0-3.48.441-6.189 3.235-6.523 6.727-1.116 11.683-2.119 23.382-3.015 35.094-25.931 1.021-52.197 3.185-78.188 6.472-3.48.44-6.19 3.234-6.524 6.727-8.276 86.536-8.276 174.29 0 260.826.334 3.492 3.044 6.286 6.524 6.727 25.991 3.287 52.257 5.451 78.188 6.472.896 11.711 1.899 23.409 3.015 35.091.334 3.493 3.044 6.287 6.524 6.727 13.929 1.761 27.737 3.275 41.045 4.498 4.104.38 7.776-2.657 8.155-6.782s-2.657-7.776-6.782-8.155c-11.237-1.033-22.841-2.276-34.573-3.703-10.491-113.694-10.491-228.885 0-342.578 98.023-11.923 197.311-11.923 295.334 0 10.491 113.694 10.491 228.885 0 342.579-76.737 9.335-154.462 11.391-231.111 6.108-4.125-.287-7.713 2.834-7.998 6.967-.284 4.132 2.834 7.713 6.967 7.998 27.972 1.928 56.084 2.891 84.239 2.891 51.973 0 104.094-3.28 155.749-9.822 3.48-.441 6.189-3.235 6.523-6.727 1.116-11.682 2.118-23.38 3.015-35.091 25.931-1.021 52.197-3.184 78.188-6.472 3.48-.44 6.19-3.234 6.524-6.727 8.275-86.537 8.275-174.291-.001-260.827zM87.909 352.359c-12.483-.565-25.053-1.394-37.541-2.509-4.425-62.343-4.425-125.444 0-187.778 12.487-1.114 25.057-1.944 37.541-2.509-3.287 64.18-3.287 128.618 0 192.796zm-67.33 26.595c-7.439-81.649-7.439-164.335 0-245.984 23.051-2.758 46.282-4.622 69.253-5.571-.39 5.706-.762 11.413-1.1 17.124-15.332.667-30.803 1.725-46.102 3.205-3.63.351-6.481 3.262-6.757 6.898-5.101 67.237-5.101 135.426 0 202.673.275 3.636 3.127 6.547 6.757 6.898 15.301 1.48 30.771 2.539 46.102 3.205.338 5.711.71 11.418 1.101 17.124-22.971-.95-46.202-2.814-69.254-5.572zm470.784 0c-23.051 2.758-46.283 4.622-69.254 5.571.391-5.706.762-11.413 1.101-17.124 15.331-.667 30.802-1.725 46.104-3.205 3.63-.351 6.48-3.261 6.757-6.897 3.718-48.958 4.732-98.722 3.017-147.909-.144-4.14-3.664-7.382-7.757-7.234-4.14.144-7.378 3.617-7.233 7.757 1.622 46.523.774 93.57-2.52 139.938-12.489 1.115-25.06 1.944-37.543 2.509 3.287-64.179 3.287-128.618 0-192.798 12.483.565 25.055 1.394 37.543 2.509.419 5.914.807 11.96 1.157 18.05.229 3.989 3.535 7.07 7.48 7.07.145 0 .291-.004.438-.013 4.135-.238 7.295-3.783 7.057-7.918-.48-8.367-1.032-16.656-1.639-24.638-.276-3.635-3.127-6.546-6.757-6.897-15.302-1.48-30.772-2.539-46.104-3.205-.338-5.71-.71-11.416-1.1-17.121 22.971.949 46.202 2.813 69.253 5.571 7.439 81.649 7.439 164.334 0 245.984z"/>
  <path d="M383.407 414.231c3.583-.38 6.39-3.255 6.684-6.846.607-7.422 1.183-15.014 1.707-22.561.783-11.194 1.471-22.48 2.042-33.542.76-14.634 1.347-29.37 1.744-43.79.488-17.058.736-34.395.736-51.531 0-50.11-2.096-101.056-6.229-151.424-.294-3.591-3.101-6.465-6.683-6.845-84.563-8.975-170.313-8.975-254.875 0-3.582.38-6.389 3.254-6.683 6.845-3.65 44.49-5.716 89.494-6.139 133.755-.061 5.87-.091 11.814-.091 17.669 0 28.194.666 56.848 1.98 85.168.667 14.405 1.522 29.105 2.541 43.691.525 7.55 1.101 15.142 1.708 22.564.294 3.592 3.101 6.466 6.684 6.846 42.28 4.483 84.858 6.725 127.437 6.725s85.157-2.241 127.437-6.724zM132.408 336.34c-1.181-26.755-1.787-53.773-1.787-80.378 0-4.102.021-8.245.051-12.381 24.78-8.925 50.384-12.088 74.347-9.146 27.971 3.434 53.518 14.83 75.929 33.868 33.088 28.12 62.8 46.978 97.62 46.976.588 0 1.18-.013 1.771-.023-.265 8.202-.584 16.469-.966 24.745-52.419-19.401-98.329-9.562-139.118-.811-39.541 8.482-73.867 15.842-107.847-2.85zM375.64 111.969c3.771 47.937 5.681 96.347 5.681 143.993 0 14.713-.196 29.566-.56 44.274-31.325.754-58.891-16.839-90.102-43.363-44.498-37.802-102.213-48.197-159.797-29.215.597-38.36 2.413-77.19 5.439-115.689 79.446-8.011 159.894-8.011 239.339 0zM135.107 383.777c-.705-10.087-1.325-20.223-1.863-30.28 15.506 6.96 30.994 9.526 46.628 9.525 20.803-.001 41.86-4.517 63.53-9.166 41.833-8.975 85.043-18.243 135.174 1.905-.507 9.281-1.088 18.677-1.742 28.018-.375 5.396-.775 10.814-1.195 16.175-79.447 8.004-159.889 8.004-239.336 0-.42-5.361-.82-10.779-1.196-16.177z"/>
  <path d="M313.928 242.942c26.618 0 48.273-21.656 48.273-48.274s-21.655-48.274-48.273-48.274-48.274 21.656-48.274 48.274 21.656 48.274 48.274 48.274zm0-81.549c18.347 0 33.273 14.927 33.273 33.274s-14.927 33.274-33.273 33.274c-18.348 0-33.274-14.927-33.274-33.274s14.926-33.274 33.274-33.274z"/>
</svg>
