<svg xmlns="http://www.w3.org/2000/svg" width="512" height="512">
  <path fill="#FF4334" d="M301 256c0 24.851562-20.148438 45-45 45s-45-20.148438-45-45 20.148438-45 45-45 45 20.148438 45 45zm0 0" class="active-path" data-old_color="#000000" data-original="#000000"/>
  <path fill="#FF4334" d="M332 120H180c-33.085938 0-60 26.914062-60 60v152c0 33.085938 26.914062 60 60 60h152c33.085938 0 60-26.914062 60-60V180c0-33.085938-26.914062-60-60-60zm-76 211c-41.355469 0-75-33.644531-75-75s33.644531-75 75-75 75 33.644531 75 75-33.644531 75-75 75zm86-146c-8.285156 0-15-6.714844-15-15s6.714844-15 15-15 15 6.714844 15 15-6.714844 15-15 15zm0 0" class="active-path" data-old_color="#000000" data-original="#000000"/>
  <path fill="#FF4334" d="M377 0H135C60.5625 0 0 60.5625 0 135v242c0 74.4375 60.5625 135 135 135h242c74.4375 0 135-60.5625 135-135V135C512 60.5625 451.4375 0 377 0zm45 332c0 49.625-40.375 90-90 90H180c-49.625 0-90-40.375-90-90V180c0-49.625 40.375-90 90-90h152c49.625 0 90 40.375 90 90zm0 0" class="active-path" data-old_color="#000000" data-original="#000000"/>
</svg>
