<svg xmlns="http://www.w3.org/2000/svg" width="512" height="512">
  <path fill="#FF4334" d="M224.113281 303.960938L307.386719 256l-83.273438-47.960938zm0 0" class="active-path" data-old_color="#000000" data-original="#000000"/>
  <path fill="#FF4334" d="M475.074219 0H36.925781C16.53125 0 0 16.53125 0 36.925781v438.148438C0 495.46875 16.53125 512 36.925781 512h438.148438C495.46875 512 512 495.46875 512 475.074219V36.925781C512 16.53125 495.46875 0 475.074219 0zm-59.113281 256.261719s0 51.917969-6.585938 76.953125c-3.691406 13.703125-14.496094 24.507812-28.199219 28.195312C356.140625 368 256 368 256 368s-99.878906 0-125.175781-6.851562c-13.703125-3.6875-24.507813-14.496094-28.199219-28.199219C96.035156 308.179688 96.035156 256 96.035156 256s0-51.914062 6.589844-76.949219c3.6875-13.703125 14.757812-24.773437 28.199219-28.460937C155.859375 144 256 144 256 144s100.140625 0 125.175781 6.851562c13.703125 3.6875 24.507813 14.496094 28.199219 28.199219 6.851562 25.035157 6.585938 77.210938 6.585938 77.210938zm0 0" class="active-path" data-old_color="#000000" data-original="#000000"/>
</svg>
