<svg aria-hidden="true" style="position: absolute; width: 0; height: 0; overflow: hidden;" version="1.1" xmlns="http://www.w3.org/2000/svg" xmlns:xlink="http://www.w3.org/1999/xlink">
<defs>
<symbol id="icon-social-media" viewBox="0 0 32 32">
<path d="M18.5 27h-1v-4.9c0-0.276-0.224-0.5-0.5-0.5s-0.5 0.224-0.5 0.5v0 4.9h-13v-10h4.16c0.276 0 0.5-0.224 0.5-0.5s-0.224-0.5-0.5-0.5v0h-4.66c-0.276 0-0.5 0.224-0.5 0.5v0 10.5h-1c-0.276 0-0.5 0.224-0.5 0.5v0 1c0 1.381 1.119 2.5 2.5 2.5v0h13c1.381 0 2.5-1.119 2.5-2.5v0-1c0-0.276-0.224-0.5-0.5-0.5v0zM18 28.5c0 0.828-0.672 1.5-1.5 1.5v0h-1v-0.5c0-0.276-0.224-0.5-0.5-0.5s-0.5 0.224-0.5 0.5v0 0.5h-9v-0.5c0-0.276-0.224-0.5-0.5-0.5s-0.5 0.224-0.5 0.5v0 0.5h-1c-0.828 0-1.5-0.672-1.5-1.5v0-0.5h16zM27 4h1c0.276 0 0.5-0.224 0.5-0.5s-0.224-0.5-0.5-0.5v0h-1c-0.828 0-1.5 0.672-1.5 1.5v0 0.5h-0.5c-0.276 0-0.5 0.224-0.5 0.5s0.224 0.5 0.5 0.5v0h0.5v1.5c0 0.276 0.224 0.5 0.5 0.5s0.5-0.224 0.5-0.5v0-1.5h0.5c0.276 0 0.5-0.224 0.5-0.5s-0.224-0.5-0.5-0.5v0h-0.5v-0.5c0-0.276 0.224-0.5 0.5-0.5v0z"></path>
<path d="M29.5 1h-6c-0.828 0-1.5 0.672-1.5 1.5v0 1c0 0.276 0.224 0.5 0.5 0.5s0.5-0.224 0.5-0.5v0-1c0-0.276 0.224-0.5 0.5-0.5v0h6c0.276 0 0.5 0.224 0.5 0.5v0 6c0 0.276-0.224 0.5-0.5 0.5v0h-6c-0.276 0-0.5-0.224-0.5-0.5v0-3c0-0.276-0.224-0.5-0.5-0.5s-0.5 0.224-0.5 0.5v0 3c0 0.828 0.672 1.5 1.5 1.5v0h6c0.828 0 1.5-0.672 1.5-1.5v0-6c0-0.828-0.672-1.5-1.5-1.5v0zM24.5 21c0 1.105 0.895 2 2 2s2-0.895 2-2c0-1.105-0.895-2-2-2v0c-1.105 0-2 0.895-2 2v0zM27.5 21c0 0.552-0.448 1-1 1s-1-0.448-1-1c0-0.552 0.448-1 1-1v0c0.552 0 1 0.448 1 1v0z"></path>
<path d="M29.5 16.5h-6c-0.828 0-1.5 0.672-1.5 1.5v0 6c0 0.828 0.672 1.5 1.5 1.5v0h6c0.828 0 1.5-0.672 1.5-1.5v0-1c0-0.276-0.224-0.5-0.5-0.5s-0.5 0.224-0.5 0.5v0 1c0 0.276-0.224 0.5-0.5 0.5v0h-6c-0.276 0-0.5-0.224-0.5-0.5v0-6c0-0.276 0.224-0.5 0.5-0.5v0h6c0.276 0 0.5 0.224 0.5 0.5v0 3c0 0.276 0.224 0.5 0.5 0.5s0.5-0.224 0.5-0.5v0-3c0-0.828-0.672-1.5-1.5-1.5v0zM12.235 6.925c0.075 0.047 0.166 0.075 0.263 0.075 0.001 0 0.001 0 0.002 0h-0c0.082-0 0.16-0.021 0.228-0.056l-0.003 0.001 3-1.5c0.163-0.085 0.272-0.252 0.272-0.445s-0.109-0.36-0.269-0.444l-0.003-0.001-3-1.5c-0.066-0.034-0.143-0.054-0.225-0.054-0.276 0-0.499 0.223-0.5 0.498v3c0 0 0 0.001 0 0.001 0 0.178 0.093 0.334 0.233 0.423l0.002 0.001zM13 4.31l1.38 0.69-1.38 0.69z"></path>
<path d="M13.5 9.5c2.485 0 4.5-2.015 4.5-4.5s-2.015-4.5-4.5-4.5c-2.485 0-4.5 2.015-4.5 4.5v0c0 2.485 2.015 4.5 4.5 4.5v0zM13.5 1.5c1.933 0 3.5 1.567 3.5 3.5s-1.567 3.5-3.5 3.5c-1.933 0-3.5-1.567-3.5-3.5v0c0-1.933 1.567-3.5 3.5-3.5v0zM18.5 11.5c0.163 0 0.308-0.078 0.399-0.199l0.001-0.001 1.5-2c0.062-0.083 0.1-0.187 0.1-0.3 0-0.276-0.224-0.5-0.5-0.5-0.163 0-0.308 0.078-0.399 0.199l-0.001 0.001-1.5 2c-0.062 0.083-0.1 0.187-0.1 0.3 0 0.163 0.078 0.308 0.199 0.399l0.001 0.001c0.083 0.062 0.187 0.1 0.3 0.1v0zM19.6 13.3c0.092 0.122 0.237 0.2 0.4 0.2v0c0.113 0 0.217-0.038 0.301-0.101l-0.001 0.001 2-1.5c0.122-0.092 0.2-0.237 0.2-0.4 0-0.276-0.224-0.5-0.5-0.5-0.113 0-0.217 0.038-0.301 0.101l0.001-0.001-2 1.5c-0.122 0.092-0.2 0.237-0.2 0.4 0 0.113 0.038 0.217 0.101 0.301l-0.001-0.001zM24.5 14.4c-0.043-0.236-0.247-0.412-0.492-0.412-0.038 0-0.075 0.004-0.111 0.012l0.003-0.001-2.5 0.5c-0.255 0.026-0.453 0.24-0.453 0.5 0 0.278 0.225 0.502 0.503 0.502 0.018 0 0.035-0.001 0.052-0.003l-0.002 0h0.1l2.5-0.5c0.236-0.043 0.412-0.247 0.412-0.492 0-0.038-0.004-0.075-0.012-0.111l0.001 0.003zM1.5 14.5h6c0.276 0 0.5-0.224 0.5-0.5v0-8c0-0.276-0.224-0.5-0.5-0.5v0h-6c-0.276 0-0.5 0.224-0.5 0.5v0 8c0 0.276 0.224 0.5 0.5 0.5v0zM2 6.5h5v7h-5z"></path>
<path d="M5.5 7.5h-1c-0.276 0-0.5 0.224-0.5 0.5s0.224 0.5 0.5 0.5v0h1c0.276 0 0.5-0.224 0.5-0.5s-0.224-0.5-0.5-0.5v0zM5.5 9.5h-2c-0.276 0-0.5 0.224-0.5 0.5s0.224 0.5 0.5 0.5v0h2c0.276 0 0.5-0.224 0.5-0.5s-0.224-0.5-0.5-0.5v0zM5.5 11.5h-2c-0.276 0-0.5 0.224-0.5 0.5s0.224 0.5 0.5 0.5v0h2c0.276 0 0.5-0.224 0.5-0.5s-0.224-0.5-0.5-0.5v0zM18.060 14.35c-0.088-0.152-0.25-0.252-0.435-0.252-0.277 0-0.502 0.225-0.502 0.502 0 0.092 0.025 0.178 0.068 0.252l-0.001-0.002 2.205 3.815-8 3h-0.075l-2.165 1.25c-0.144 0.084-0.316 0.134-0.501 0.134-0.092 0-0.182-0.012-0.267-0.036l0.007 0.002c-0.26-0.072-0.473-0.239-0.602-0.46l-0.003-0.005-1-1.73c-0.071-0.134-0.113-0.293-0.113-0.461 0-0.363 0.194-0.681 0.483-0.856l0.004-0.003 1.73-1 1.25 2.165c0.088 0.151 0.249 0.25 0.433 0.25 0.001 0 0.001 0 0.002 0h-0c0.001 0 0.001 0 0.002 0 0.276 0 0.5-0.224 0.5-0.5 0-0.092-0.025-0.178-0.068-0.252l0.001 0.002-1.29-2.23 6.275-5.175 0.205 0.355c0.088 0.152 0.25 0.252 0.435 0.252 0.277 0 0.502-0.225 0.502-0.502 0-0.092-0.025-0.178-0.068-0.252l0.001 0.002-0.5-0.865c-0.074-0.125-0.197-0.213-0.342-0.24l-0.003-0c-0.028-0.005-0.060-0.009-0.093-0.009-0.121 0-0.232 0.043-0.318 0.114l0.001-0.001-7 5.77-2.13 1.23c-0.598 0.353-0.993 0.995-0.993 1.728 0 0.191 0.027 0.376 0.077 0.551l-0.003-0.014-0.5 0.285c-0.453 0.264-0.753 0.747-0.753 1.301 0 0.691 0.467 1.273 1.103 1.447l0.011 0.002c0.115 0.032 0.248 0.050 0.384 0.050 0.002 0 0.004 0 0.006 0h-0c0.276-0.001 0.534-0.075 0.757-0.204l-0.007 0.004 0.5-0.285c0.234 0.242 0.53 0.422 0.861 0.517l0.014 0.003c0.153 0.044 0.329 0.070 0.511 0.070 0.005 0 0.010-0 0.015-0h-0.001c0.001 0 0.003 0 0.005 0 0.367 0 0.71-0.1 1.005-0.275l-0.009 0.005 0.435-0.25 1 1.735c0.264 0.451 0.747 0.749 1.298 0.749 0.275 0 0.532-0.074 0.754-0.203l-0.007 0.004c0.452-0.264 0.751-0.747 0.751-1.3 0-0.276-0.075-0.535-0.205-0.757l0.004 0.007-0.91-1.585 7.5-2.815c0.138-0.053 0.244-0.161 0.294-0.297l0.001-0.003c0.019-0.050 0.030-0.109 0.030-0.169 0-0.090-0.024-0.175-0.066-0.248l0.001 0.002zM6.25 22.895c-0.072 0.042-0.158 0.067-0.25 0.067-0.046 0-0.091-0.006-0.133-0.018l0.003 0.001c-0.131-0.035-0.238-0.117-0.304-0.228l-0.001-0.002c-0.042-0.072-0.067-0.158-0.067-0.25 0-0.046 0.006-0.091 0.018-0.133l-0.001 0.003c0.036-0.131 0.12-0.239 0.233-0.304l0.002-0.001 0.435-0.25 0.5 0.865zM12.83 24.295c0.042 0.072 0.067 0.158 0.067 0.25 0 0.046-0.006 0.091-0.018 0.133l0.001-0.003c-0.037 0.129-0.121 0.235-0.233 0.299l-0.002 0.001c-0.072 0.042-0.157 0.066-0.249 0.066-0.183 0-0.342-0.098-0.43-0.244l-0.001-0.002-1-1.735 0.83-0.475h0.040z"></path>
</symbol>
<symbol id="icon-blog" viewBox="0 0 32 32">
<path d="M30.563 3.688h-29.125c-0.793 0.001-1.436 0.644-1.438 1.437v21.75c0.001 0.794 0.644 1.436 1.437 1.438h29.125c0.794-0.001 1.436-0.644 1.438-1.437v-21.75c-0.001-0.793-0.644-1.436-1.437-1.437h-0zM0.875 5.125c0-0.311 0.252-0.562 0.562-0.563h29.125c0.311 0 0.562 0.252 0.563 0.562v3.375h-30.25zM31.125 26.873c-0 0.311-0.252 0.562-0.562 0.563h-29.125c-0.31-0-0.561-0.251-0.563-0.561v-17.499h30.25z"></path>
<path d="M29.061 6.095h-1.438c-0.242 0-0.438 0.196-0.438 0.438s0.196 0.438 0.438 0.438v0h1.438c0.242 0 0.438-0.196 0.438-0.438s-0.196-0.438-0.438-0.438v0zM25.217 6.095h-1.438c-0.242 0-0.438 0.196-0.438 0.438s0.196 0.438 0.438 0.438v0h1.438c0.242 0 0.438-0.196 0.438-0.438s-0.196-0.438-0.438-0.438v0zM21.373 6.095h-1.438c-0.242 0-0.438 0.196-0.438 0.438s0.196 0.438 0.438 0.438v0h1.438c0.242 0 0.438-0.196 0.438-0.438s-0.196-0.438-0.438-0.438v0zM14.812 20.6h14.25c0.242 0 0.438-0.196 0.438-0.438v0-8.725c0-0.242-0.196-0.438-0.438-0.438v0h-14.25c-0.242 0-0.438 0.196-0.438 0.438v0 8.725c0 0.242 0.196 0.438 0.438 0.438v0zM28.625 19.725h-13.375v-1.331l3.867-2.644 9.508 3.773zM28.625 11.875v6.706l-9.4-3.732c-0.048-0.019-0.103-0.031-0.161-0.031-0.092 0-0.178 0.029-0.249 0.077l0.001-0.001-3.567 2.438v-5.458z"></path>
<path d="M24.805 16.085c0.893 0 1.617-0.724 1.617-1.617s-0.724-1.617-1.617-1.617c-0.893 0-1.617 0.724-1.617 1.617v0c0.001 0.893 0.724 1.616 1.617 1.617h0zM24.805 13.726c0.41 0 0.742 0.332 0.742 0.742s-0.332 0.742-0.742 0.742c-0.41 0-0.742-0.332-0.742-0.742v0c0-0.41 0.332-0.743 0.742-0.743h0zM2.938 11.876h9.373c0.242 0 0.438-0.196 0.438-0.438s-0.196-0.438-0.438-0.438v0h-9.373c-0.242 0-0.438 0.196-0.438 0.438s0.196 0.438 0.438 0.438v0zM2.938 16.521h9.373c0.242 0 0.438-0.196 0.438-0.438s-0.196-0.438-0.438-0.438v0h-9.373c-0.242 0-0.438 0.196-0.438 0.438s0.196 0.438 0.438 0.438v0zM2.938 21.166h9.373c0.242 0 0.438-0.196 0.438-0.438s-0.196-0.438-0.438-0.438v0h-9.373c-0.242 0-0.438 0.196-0.438 0.438s0.196 0.438 0.438 0.438v0zM3.938 13.325c-0.242 0-0.438 0.196-0.438 0.438s0.196 0.438 0.438 0.438v0h7.371c0.242 0 0.438-0.196 0.438-0.438s-0.196-0.438-0.438-0.438v0zM3.938 17.969c-0.242 0-0.438 0.196-0.438 0.438s0.196 0.438 0.438 0.438v0h7.371c0.242 0 0.438-0.196 0.438-0.438s-0.196-0.438-0.438-0.438v0zM29.063 22.614h-25.124c-0.242 0-0.438 0.196-0.438 0.438s0.196 0.438 0.438 0.438v0h25.125c0.242 0 0.438-0.196 0.438-0.438s-0.196-0.438-0.438-0.438v0zM2.938 25.812h26.125c0.242 0 0.438-0.196 0.438-0.438s-0.196-0.438-0.438-0.438v0h-26.125c-0.242 0-0.438 0.196-0.438 0.438s0.196 0.438 0.438 0.438v0z"></path>
</symbol>
<symbol id="icon-gallery" viewBox="0 0 32 32">
<path d="M31.612 7.848c-0.021-0.218-0.19-0.393-0.408-0.42-1.625-0.205-3.266-0.341-4.887-0.405-0.056-0.732-0.119-1.463-0.188-2.194-0.021-0.218-0.19-0.393-0.408-0.42-6.45-0.817-12.991-0.817-19.441 0-0.218 0.028-0.387 0.202-0.408 0.42-0.070 0.73-0.132 1.462-0.188 2.194-1.621 0.064-3.263 0.199-4.887 0.405-0.218 0.027-0.387 0.202-0.408 0.42-0.517 5.409-0.517 10.894 0 16.303 0.021 0.218 0.19 0.393 0.408 0.421 1.625 0.205 3.266 0.341 4.887 0.405 0.056 0.732 0.119 1.463 0.188 2.193 0.021 0.218 0.19 0.393 0.408 0.421 0.871 0.11 1.734 0.205 2.566 0.281 0.257 0.024 0.486-0.166 0.51-0.424s-0.166-0.486-0.424-0.51c-0.702-0.065-1.428-0.142-2.161-0.231-0.656-7.107-0.656-14.307 0-21.414 6.127-0.745 12.333-0.745 18.46 0 0.656 7.107 0.656 14.307 0 21.414-4.797 0.584-9.655 0.712-14.446 0.382-0.258-0.018-0.482 0.177-0.5 0.436s0.177 0.482 0.435 0.5c1.748 0.12 3.506 0.181 5.266 0.181 3.249 0 6.507-0.205 9.735-0.614 0.218-0.028 0.387-0.202 0.408-0.421 0.070-0.73 0.132-1.461 0.188-2.193 1.621-0.064 3.263-0.199 4.887-0.405 0.218-0.027 0.387-0.202 0.408-0.421 0.517-5.409 0.517-10.894-0-16.304zM5.495 22.025c-0.78-0.035-1.566-0.087-2.347-0.157-0.277-3.897-0.277-7.841 0-11.737 0.781-0.070 1.566-0.121 2.347-0.157-0.205 4.012-0.205 8.040 0 12.051zM1.286 23.687c-0.465-5.104-0.465-10.272 0-15.376 1.441-0.172 2.893-0.289 4.329-0.348-0.024 0.357-0.048 0.713-0.069 1.070-0.958 0.042-1.925 0.108-2.882 0.2-0.227 0.022-0.405 0.204-0.422 0.431-0.319 4.203-0.319 8.465 0 12.669 0.017 0.227 0.195 0.409 0.422 0.431 0.956 0.093 1.923 0.159 2.882 0.2 0.021 0.357 0.044 0.714 0.069 1.070-1.436-0.059-2.888-0.176-4.329-0.348zM30.714 23.687c-1.441 0.172-2.893 0.289-4.329 0.348 0.024-0.357 0.048-0.713 0.069-1.070 0.958-0.042 1.925-0.108 2.882-0.2 0.227-0.022 0.405-0.204 0.422-0.431 0.232-3.060 0.296-6.171 0.189-9.245-0.009-0.259-0.229-0.461-0.485-0.452-0.259 0.009-0.461 0.226-0.452 0.485 0.101 2.908 0.048 5.849-0.158 8.747-0.781 0.070-1.566 0.122-2.347 0.157 0.205-4.012 0.205-8.040 0-12.051 0.78 0.035 1.566 0.087 2.347 0.157 0.026 0.37 0.050 0.748 0.072 1.128 0.014 0.249 0.221 0.442 0.468 0.442 0.009 0 0.018-0 0.027-0.001 0.258-0.015 0.456-0.236 0.441-0.495-0.030-0.523-0.064-1.041-0.102-1.54-0.017-0.227-0.195-0.409-0.422-0.431-0.956-0.092-1.923-0.159-2.882-0.2-0.021-0.357-0.044-0.714-0.069-1.070 1.436 0.059 2.888 0.176 4.329 0.348 0.465 5.104 0.465 10.272 0 15.376z"></path>
<path d="M23.966 25.892c0.224-0.024 0.399-0.203 0.418-0.428 0.038-0.464 0.074-0.938 0.107-1.41 0.049-0.7 0.092-1.405 0.128-2.097 0.047-0.915 0.084-1.836 0.109-2.737 0.030-1.066 0.046-2.15 0.046-3.221 0-3.132-0.131-6.317-0.389-9.465-0.018-0.224-0.194-0.404-0.418-0.428-5.286-0.561-10.646-0.561-15.931 0-0.224 0.024-0.399 0.203-0.418 0.428-0.228 2.781-0.357 5.594-0.384 8.361-0.004 0.367-0.006 0.738-0.006 1.104 0 1.762 0.042 3.553 0.124 5.324 0.042 0.9 0.095 1.819 0.159 2.731 0.033 0.472 0.069 0.946 0.107 1.41 0.018 0.225 0.194 0.404 0.418 0.428 2.643 0.28 5.304 0.42 7.966 0.42s5.323-0.14 7.966-0.42zM8.276 21.024c-0.074-1.672-0.112-3.361-0.112-5.024 0-0.256 0.001-0.515 0.003-0.774 1.549-0.558 3.149-0.756 4.647-0.572 1.748 0.215 3.345 0.927 4.746 2.117 2.068 1.758 3.925 2.936 6.102 2.936 0.037 0 0.074-0.001 0.111-0.001-0.017 0.513-0.037 1.029-0.060 1.547-3.277-1.213-6.146-0.598-8.696-0.051-2.472 0.53-4.617 0.99-6.741-0.178zM23.48 6.999c0.236 2.996 0.355 6.022 0.355 9.001 0 0.92-0.012 1.848-0.035 2.767-1.958 0.047-3.681-1.053-5.632-2.71-2.781-2.363-6.389-3.013-9.988-1.826 0.037-2.398 0.151-4.825 0.34-7.231 4.966-0.501 9.995-0.501 14.96 0zM8.445 23.989c-0.044-0.631-0.083-1.264-0.116-1.893 0.969 0.435 1.937 0.595 2.915 0.595 1.3-0 2.617-0.282 3.971-0.573 2.615-0.561 5.316-1.14 8.449 0.119-0.032 0.58-0.068 1.167-0.109 1.751-0.023 0.337-0.048 0.676-0.075 1.011-4.966 0.5-9.994 0.5-14.96 0-0.026-0.335-0.051-0.674-0.075-1.011z"></path>
<path d="M19.623 15.186c1.664 0 3.017-1.354 3.017-3.017s-1.354-3.017-3.017-3.017-3.017 1.354-3.017 3.017 1.354 3.017 3.017 3.017zM19.623 10.088c1.147 0 2.080 0.933 2.080 2.080s-0.933 2.080-2.080 2.080c-1.147 0-2.080-0.933-2.080-2.080s0.933-2.080 2.080-2.080z"></path>
</symbol>
<symbol id="icon-instagram" viewBox="0 0 32 32">
<path fill="#ff4334" style="fill: var(--color1, #ff4334)" d="M18.813 16c0 1.553-1.259 2.813-2.813 2.813s-2.813-1.259-2.813-2.813 1.259-2.813 2.813-2.813 2.813 1.259 2.813 2.813z"></path>
<path fill="#ff4334" style="fill: var(--color1, #ff4334)" d="M20.75 7.5h-9.5c-2.068 0-3.75 1.682-3.75 3.75v9.5c0 2.068 1.682 3.75 3.75 3.75h9.5c2.068 0 3.75-1.682 3.75-3.75v-9.5c0-2.068-1.682-3.75-3.75-3.75zM16 20.688c-2.585 0-4.688-2.103-4.688-4.688s2.103-4.688 4.688-4.688 4.688 2.103 4.688 4.688-2.103 4.688-4.688 4.688zM21.375 11.563c-0.518 0-0.938-0.42-0.938-0.938s0.42-0.938 0.938-0.938 0.938 0.42 0.938 0.938-0.42 0.938-0.938 0.938z"></path>
<path fill="#ff4334" style="fill: var(--color1, #ff4334)" d="M23.563 0h-15.125c-4.652 0-8.438 3.785-8.438 8.438v15.125c0 4.652 3.785 8.438 8.438 8.438h15.125c4.652 0 8.438-3.785 8.438-8.438v-15.125c0-4.652-3.785-8.438-8.438-8.438zM26.375 20.75c0 3.102-2.523 5.625-5.625 5.625h-9.5c-3.102 0-5.625-2.523-5.625-5.625v-9.5c0-3.102 2.523-5.625 5.625-5.625h9.5c3.102 0 5.625 2.523 5.625 5.625z"></path>
</symbol>
<symbol id="icon-facebook" viewBox="0 0 32 32">
<path fill="#ff4334" style="fill: var(--color1, #ff4334)" d="M27.313 0h-22.625c-2.584 0-4.688 2.103-4.688 4.688v22.625c0 2.584 2.103 4.688 4.688 4.688h9.438v-11.313h-3.75v-5.625h3.75v-3.813c0-3.102 2.523-5.625 5.625-5.625h5.688v5.625h-5.688v3.813h5.688l-0.938 5.625h-4.75v11.313h7.563c2.584 0 4.688-2.103 4.688-4.688v-22.625c0-2.584-2.103-4.688-4.688-4.688z"></path>
</symbol>
<symbol id="icon-forward" viewBox="0 0 32 32">
<path d="M31.609 14.392l-11.993-11.993c-0.381-0.38-0.953-0.496-1.452-0.289-0.498 0.205-0.822 0.693-0.822 1.231v5.336c-7.668 0.314-14.357 5.491-16.5 12.91-0.927 3.217-0.856 5.83-0.829 6.815l0.005 0.259c0 0.6 0.401 1.126 0.978 1.285 0.119 0.032 0.237 0.048 0.354 0.048 0.461 0 0.901-0.241 1.145-0.65 5.278-8.872 12.271-9.124 14.846-8.873v6.859c0 0.538 0.324 1.026 0.822 1.231 0.5 0.208 1.071 0.092 1.452-0.289l11.993-11.993c0.521-0.521 0.521-1.363 0-1.884z"></path>
</symbol>
<symbol id="icon-mail" viewBox="0 0 32 32">
<path fill="#ff4334" style="fill: var(--color1, #ff4334)" d="M29.188 3.813h-26.375c-0.433 0-0.838 0.106-1.205 0.282l14.33 14.33 3.212-3.087s0-0 0-0 0-0 0-0l11.243-11.242c-0.367-0.176-0.772-0.282-1.205-0.282zM31.718 5.42l-10.58 10.58 10.58 10.58c0.175-0.367 0.282-0.772 0.282-1.205v-18.75c0-0.433-0.106-0.838-0.282-1.204zM0.282 5.42c-0.175 0.367-0.282 0.772-0.282 1.205v18.75c0 0.433 0.106 0.838 0.282 1.205l10.58-10.58-10.58-10.58z"></path>
<path fill="#ff4334" style="fill: var(--color1, #ff4334)" d="M19.813 17.326l-3.212 3.087c-0.183 0.183-0.423 0.275-0.663 0.275s-0.48-0.092-0.663-0.275l-3.087-3.087-10.58 10.58c0.367 0.176 0.772 0.282 1.205 0.282h26.375c0.433 0 0.838-0.106 1.205-0.282l-10.58-10.58z"></path>
</symbol>
<symbol id="icon-phone" viewBox="0 0 32 32">
<path fill="#ff4334" style="fill: var(--color1, #ff4334)" d="M29.432 21.004c-1.959 0-3.883-0.306-5.706-0.909-0.893-0.305-1.991-0.025-2.537 0.535l-3.598 2.716c-4.173-2.227-6.743-4.797-8.94-8.938l2.636-3.504c0.685-0.684 0.931-1.683 0.636-2.621-0.605-1.832-0.912-3.755-0.912-5.715 0-1.416-1.152-2.568-2.568-2.568h-5.877c-1.416 0-2.568 1.152-2.568 2.568 0 16.229 13.203 29.432 29.432 29.432 1.416 0 2.568-1.152 2.568-2.568v-5.86c-0-1.416-1.152-2.568-2.568-2.568z"></path>
</symbol>
<symbol id="icon-pin" viewBox="0 0 32 32">
<path fill="#ff4334" style="fill: var(--color1, #ff4334)" d="M16 0c-5.881 0-10.667 4.785-10.667 10.667 0 1.766 0.441 3.516 1.281 5.069l8.803 15.921c0.117 0.212 0.341 0.344 0.583 0.344s0.466-0.131 0.583-0.344l8.806-15.926c0.836-1.547 1.277-3.298 1.277-5.064 0-5.881-4.785-10.667-10.667-10.667zM16 16c-2.941 0-5.333-2.393-5.333-5.333s2.393-5.333 5.333-5.333 5.333 2.393 5.333 5.333-2.393 5.333-5.333 5.333z"></path>
</symbol>
<symbol id="icon-telegram" viewBox="0 0 32 32">
<path fill="#ff4334" style="fill: var(--color1, #ff4334)" d="M31.347 1.959v28.082c0 0.718-0.588 1.306-1.306 1.306h-28.082c-0.718 0-1.306-0.588-1.306-1.306v-28.082c0-0.718 0.588-1.306 1.306-1.306h28.082c0.718 0 1.306 0.588 1.306 1.306z"></path>
<path fill="#fff" style="fill: var(--color2, #fff)" d="M24.986 7.020c1.463-0.457 2.443 0.196 2.443 1.175 0 0-3.749 16.131-4.402 17.437s-1.633 0.653-1.633 0.653l-5.551-3.918-2.286 2.286c-1.306 1.306-1.959 0-1.959 0l-2.286-6.204s-3.638-0.412-4.898-1.633c-1.149-1.111-0.17-1.764-0.17-1.764l20.741-8.033zM15.347 17.992l8.816-8.49-13.061 7.511 1.959 5.224 2.286-4.245z"></path>
<path fill="#ff4334" style="fill: var(--color1, #ff4334)" d="M30.041 0h-28.082c-1.080 0-1.959 0.879-1.959 1.959v28.082c0 1.080 0.879 1.959 1.959 1.959h28.082c1.080 0 1.959-0.879 1.959-1.959v-28.082c0-1.080-0.879-1.959-1.959-1.959zM30.694 30.041c0 0.36-0.293 0.653-0.653 0.653h-28.082c-0.36 0-0.653-0.293-0.653-0.653v-28.082c0-0.36 0.293-0.653 0.653-0.653h28.082c0.36 0 0.653 0.293 0.653 0.653v28.082z"></path>
<path fill="#ff4334" style="fill: var(--color1, #ff4334)" d="M25.889 6.218c-0.349 0-0.719 0.060-1.098 0.179-0.014 0.004-0.027 0.009-0.041 0.014l-20.741 8.033c-0.044 0.017-0.087 0.039-0.126 0.066-0.062 0.041-0.61 0.426-0.674 1.138-0.050 0.556 0.203 1.107 0.751 1.638 1.161 1.124 3.824 1.608 4.876 1.76l2.149 5.834c0.008 0.023 0.018 0.045 0.029 0.066 0.175 0.35 0.678 0.941 1.455 0.941 0.517 0 1.038-0.26 1.55-0.772l1.897-1.897 5.102 3.601c0.005 0.003 0.010 0.007 0.014 0.010 0.068 0.046 0.435 0.273 0.934 0.273 0.395 0 1.133-0.153 1.645-1.177 0.668-1.337 4.068-15.923 4.454-17.581 0.011-0.048 0.017-0.098 0.017-0.148 0-1.146-0.922-1.978-2.192-1.978zM22.443 25.341c-0.104 0.208-0.271 0.455-0.477 0.455-0.090 0-0.178-0.038-0.214-0.057l-5.532-3.905c-0.26-0.183-0.614-0.153-0.838 0.072l-2.286 2.286c-0.361 0.361-0.571 0.389-0.627 0.389-0.13 0-0.24-0.149-0.278-0.207l-2.266-6.151c-0.085-0.232-0.294-0.395-0.539-0.423-0.951-0.108-3.617-0.581-4.518-1.453-0.345-0.334-0.362-0.525-0.359-0.576 0.004-0.061 0.043-0.115 0.074-0.149l20.617-7.985c0.246-0.075 0.477-0.113 0.689-0.113 0.201 0 0.839 0.045 0.884 0.607-1.501 6.456-3.878 16.306-4.33 17.209z"></path>
<path fill="#ff4334" style="fill: var(--color1, #ff4334)" d="M23.838 8.935l-13.061 7.511c-0.277 0.159-0.398 0.496-0.286 0.795l1.959 5.224c0.090 0.24 0.312 0.405 0.567 0.422 0.015 0.001 0.030 0.002 0.044 0.002 0.239 0 0.46-0.131 0.575-0.343l2.237-4.155 8.743-8.419c0.238-0.229 0.267-0.599 0.069-0.863s-0.562-0.338-0.848-0.174zM14.894 17.521c-0.049 0.047-0.090 0.101-0.122 0.161l-1.604 2.979-1.26-3.359 7.977-4.587-4.991 4.806z"></path>
</symbol>
<symbol id="icon-youtube" viewBox="0 0 32 32">
<path fill="#ff4334" style="fill: var(--color1, #ff4334)" d="M14.007 18.998l5.205-2.998-5.205-2.998z"></path>
<path fill="#ff4334" style="fill: var(--color1, #ff4334)" d="M29.692 0h-27.384c-1.275 0-2.308 1.033-2.308 2.308v27.384c0 1.275 1.033 2.308 2.308 2.308h27.384c1.275 0 2.308-1.033 2.308-2.308v-27.384c0-1.275-1.033-2.308-2.308-2.308zM25.998 16.016s0 3.245-0.412 4.81c-0.231 0.856-0.906 1.532-1.762 1.762-1.565 0.412-7.823 0.412-7.823 0.412s-6.242 0-7.823-0.428c-0.856-0.23-1.532-0.906-1.762-1.762-0.412-1.548-0.412-4.809-0.412-4.809s0-3.245 0.412-4.809c0.23-0.856 0.922-1.548 1.762-1.779 1.565-0.412 7.823-0.412 7.823-0.412s6.259 0 7.823 0.428c0.856 0.23 1.532 0.906 1.762 1.762 0.428 1.565 0.412 4.826 0.412 4.826z"></path>
</symbol>
</defs>
</svg>
